<svg width="73" height="18" viewBox="0 0 73 18" fill="none" xmlns="http://www.w3.org/2000/svg">
<path d="M0.668396 8.986C0.668396 7.53033 0.892346 6.24261 1.34025 5.12286C1.80681 4.00311 2.432 3.06998 3.21583 2.32348C4.01832 1.55832 4.95144 0.979782 6.01521 0.587868C7.09763 0.195956 8.26404 0 9.51443 0C10.7648 0 11.9219 0.195956 12.9857 0.587868C14.0681 0.979782 15.0105 1.55832 15.813 2.32348C16.6155 3.06998 17.2407 4.00311 17.6886 5.12286C18.1552 6.24261 18.3885 7.53033 18.3885 8.986C18.3885 10.4417 18.1645 11.7387 17.7166 12.8771C17.2687 13.9969 16.6435 14.9393 15.841 15.7045C15.0572 16.451 14.1241 17.0202 13.0416 17.4121C11.9592 17.804 10.7835 18 9.51443 18C8.24538 18 7.06964 17.804 5.98721 17.4121C4.90479 17.0016 3.97166 16.4137 3.18784 15.6485C2.40401 14.8834 1.78815 13.9409 1.34025 12.8212C0.892346 11.7014 0.668396 10.423 0.668396 8.986ZM5.70728 8.986C5.70728 10.6843 6.05253 11.9533 6.74305 12.7932C7.43356 13.633 8.35736 14.0529 9.51443 14.0529C10.6902 14.0529 11.6233 13.633 12.3138 12.7932C13.0043 11.9533 13.3496 10.6843 13.3496 8.986C13.3496 7.30638 13.0043 6.04665 12.3138 5.20684C11.642 4.36703 10.7182 3.94712 9.54243 3.94712C8.38535 3.94712 7.45222 4.36703 6.74305 5.20684C6.05253 6.02799 5.70728 7.28771 5.70728 8.986Z" fill="url(#paint0_linear)"/>
<path d="M24.5786 11.1975V17.3841C24.3733 17.4401 24.0467 17.4961 23.5988 17.5521C23.1509 17.6081 22.7123 17.6361 22.2831 17.6361C21.8539 17.6361 21.4713 17.5988 21.1353 17.5241C20.8181 17.4681 20.5475 17.3561 20.3235 17.1882C20.0996 17.0202 19.9316 16.7869 19.8196 16.4883C19.7077 16.1897 19.6517 15.7978 19.6517 15.3126V0.53188C19.857 0.494555 20.1836 0.447899 20.6315 0.391912C21.0794 0.317261 21.5086 0.279938 21.9192 0.279938C22.3484 0.279938 22.7217 0.317261 23.0389 0.391912C23.3749 0.447899 23.6548 0.559874 23.8787 0.727837C24.1027 0.8958 24.2707 1.12908 24.3826 1.42768C24.4946 1.72628 24.5506 2.11819 24.5506 2.60342V7.05443L30.3733 0.363917C31.6424 0.363917 32.5475 0.60653 33.0887 1.09176C33.6486 1.55832 33.9285 2.11819 33.9285 2.77138C33.9285 3.25661 33.8072 3.71384 33.5646 4.14308C33.322 4.57232 32.9301 5.05754 32.3889 5.59875L28.8896 9.09798C29.3562 9.62053 29.8414 10.1617 30.3453 10.7216C30.8679 11.2815 31.3717 11.832 31.857 12.3732C32.3609 12.8958 32.8368 13.3997 33.2847 13.8849C33.7512 14.3701 34.1525 14.79 34.4884 15.1446C34.4884 15.5552 34.4137 15.9191 34.2644 16.2364C34.1151 16.5537 33.9098 16.8243 33.6486 17.0482C33.406 17.2722 33.126 17.4401 32.8088 17.5521C32.4915 17.6641 32.1556 17.7201 31.801 17.7201C31.0358 17.7201 30.4106 17.5334 29.9254 17.1602C29.4402 16.7683 28.9736 16.311 28.5257 15.7885L24.5786 11.1975Z" fill="url(#paint1_linear)"/>
<path d="M40.2057 12.0093V17.3841C40.0004 17.4401 39.6738 17.4961 39.2259 17.5521C38.7967 17.6081 38.3674 17.6361 37.9382 17.6361C37.5089 17.6361 37.1264 17.5988 36.7904 17.5241C36.4732 17.4681 36.2026 17.3561 35.9786 17.1882C35.7733 17.0202 35.6147 16.7869 35.5027 16.4883C35.3907 16.1897 35.3348 15.7978 35.3348 15.3126V2.12753C35.3348 1.73561 35.4374 1.43701 35.6427 1.23172C35.8666 1.00777 36.1652 0.830481 36.5385 0.699844C37.173 0.475893 37.9102 0.317261 38.75 0.223948C39.5898 0.111974 40.4856 0.0559864 41.4374 0.0559864C44.0128 0.0559864 45.9537 0.5972 47.2601 1.67963C48.5665 2.76205 49.2197 4.22706 49.2197 6.07465C49.2197 7.23172 48.9211 8.22084 48.3239 9.04199C47.7267 9.86314 47.0175 10.4977 46.1963 10.9456C46.8682 11.86 47.5307 12.7185 48.1839 13.521C48.8371 14.3235 49.3503 15.0513 49.7236 15.7045C49.5369 16.3577 49.1917 16.8616 48.6878 17.2162C48.2026 17.5521 47.652 17.7201 47.0362 17.7201C46.6256 17.7201 46.271 17.6734 45.9724 17.5801C45.6738 17.4868 45.4125 17.3561 45.1886 17.1882C44.9646 17.0202 44.7593 16.8149 44.5727 16.5723C44.3861 16.3297 44.2088 16.0684 44.0408 15.7885L41.6894 12.0093H40.2057ZM41.9693 8.28616C42.6785 8.28616 43.2383 8.10886 43.6489 7.75427C44.0595 7.38102 44.2648 6.83981 44.2648 6.13064C44.2648 5.42146 44.0315 4.88958 43.5649 4.53499C43.117 4.16174 42.3985 3.97512 41.4094 3.97512C41.1295 3.97512 40.9055 3.98445 40.7376 4.00311C40.5696 4.02177 40.383 4.04976 40.1777 4.08709V8.28616H41.9693Z" fill="url(#paint2_linear)"/>
<path d="M60.7517 13.8823C60.7517 14.9455 60.3139 15.8133 59.4383 16.4857C58.5783 17.1581 57.5385 17.4942 56.3188 17.4942C55.1149 17.4942 54.0672 17.2206 53.176 16.6733C52.2847 16.1104 51.8391 15.5554 51.8391 15.0081C51.8391 14.7735 51.9094 14.5859 52.0502 14.4452C52.1909 14.2888 52.3473 14.2106 52.5193 14.2106C52.7069 14.2106 52.8554 14.2497 52.9649 14.3279C53.0743 14.3905 53.2229 14.5234 53.4105 14.7266C53.5981 14.9299 53.7623 15.1019 53.9031 15.2426C54.0594 15.3834 54.3643 15.5397 54.8178 15.7117C55.2869 15.8837 55.7168 15.9697 56.1078 15.9697C56.9677 15.9697 57.6714 15.7977 58.2186 15.4537C58.7815 15.0941 59.063 14.5781 59.063 13.9057C59.063 13.0927 58.2812 12.4125 56.7176 11.8652C56.0765 11.6463 55.4276 11.4118 54.7709 11.1616C54.1298 10.8958 53.5825 10.5361 53.1291 10.0827C52.6756 9.62925 52.4489 9.0898 52.4489 8.46435C52.4489 7.62 52.832 6.8851 53.5981 6.25965C54.3643 5.61857 55.3025 5.29803 56.4127 5.29803C57.5228 5.29803 58.3985 5.49348 59.0395 5.88438C59.6963 6.25965 60.0246 6.65837 60.0246 7.08055C60.0246 7.59654 59.751 7.85454 59.2037 7.85454C58.9692 7.85454 58.7346 7.76854 58.5001 7.59654C57.7652 7.08055 57.0616 6.82255 56.3892 6.82255C55.7168 6.82255 55.1696 6.97891 54.7474 7.29164C54.3252 7.58873 54.1141 7.94054 54.1141 8.34708C54.1141 8.73798 54.3409 9.07416 54.7943 9.35561C55.2478 9.63706 55.795 9.89506 56.4361 10.1296C57.0928 10.3641 57.7496 10.63 58.4063 10.927C59.063 11.2085 59.6181 11.6072 60.0715 12.1232C60.525 12.6236 60.7517 13.2099 60.7517 13.8823Z" fill="url(#paint3_linear)"/>
<path d="M67.18 10.9505C68.2432 10.9505 69.0876 10.7707 69.713 10.4111C70.3541 10.0514 70.6747 9.5667 70.6747 8.95689C70.6747 8.34708 70.4636 7.82327 70.0414 7.38546C69.6349 6.93201 69.0485 6.70528 68.2823 6.70528C67.2504 6.70528 66.3825 7.09619 65.6789 7.878C64.9753 8.64417 64.5218 9.54325 64.3186 10.5752C65.1786 10.8254 66.1324 10.9505 67.18 10.9505ZM68.0713 5.18076C69.3378 5.18076 70.3619 5.53257 71.1438 6.2362C71.9412 6.93982 72.3399 7.85454 72.3399 8.98034C72.3399 10.1061 71.8474 10.9661 70.8623 11.5603C69.8929 12.1388 68.6967 12.4281 67.2738 12.4281C66.4607 12.4281 65.4678 12.3108 64.2951 12.0763C64.3889 13.1708 64.7955 14.1168 65.5147 14.9143C66.2496 15.6961 67.0627 16.087 67.954 16.087C68.4856 16.087 68.9781 16.0166 69.4316 15.8759C69.885 15.7195 70.229 15.5554 70.4636 15.3834C71.089 14.8986 71.4956 14.6563 71.6832 14.6563C71.8865 14.6563 72.0428 14.7188 72.1523 14.8439C72.2774 14.9534 72.3399 15.0941 72.3399 15.2661C72.3399 15.7039 71.8865 16.2043 70.9796 16.7672C70.0883 17.3301 69.1189 17.6115 68.0713 17.6115C66.4451 17.6115 65.1551 17.0408 64.2013 15.8993C63.2475 14.7579 62.7315 13.3819 62.6533 11.7714C61.8246 11.5212 61.4102 11.1147 61.4102 10.5518C61.4102 10.3172 61.4728 10.1374 61.5979 10.0123C61.7386 9.87161 61.9028 9.80124 62.0904 9.80124C62.2781 9.80124 62.5126 9.87161 62.794 10.0123C63.138 8.60508 63.7869 7.448 64.7407 6.5411C65.7102 5.6342 66.8204 5.18076 68.0713 5.18076Z" fill="url(#paint4_linear)"/>
<defs>
<linearGradient id="paint0_linear" x1="305.995" y1="-35.001" x2="166.804" y2="256.514" gradientUnits="userSpaceOnUse">
<stop stop-color="#77D9CD"/>
<stop offset="1" stop-color="#1A537C"/>
</linearGradient>
<linearGradient id="paint1_linear" x1="305.995" y1="-35.001" x2="166.804" y2="256.514" gradientUnits="userSpaceOnUse">
<stop stop-color="#77D9CD"/>
<stop offset="1" stop-color="#1A537C"/>
</linearGradient>
<linearGradient id="paint2_linear" x1="305.995" y1="-35.001" x2="166.804" y2="256.514" gradientUnits="userSpaceOnUse">
<stop stop-color="#77D9CD"/>
<stop offset="1" stop-color="#1A537C"/>
</linearGradient>
<linearGradient id="paint3_linear" x1="176" y1="23.4999" x2="138.597" y2="130.58" gradientUnits="userSpaceOnUse">
<stop stop-color="#77D9CD"/>
<stop offset="1" stop-color="#1A537C"/>
</linearGradient>
<linearGradient id="paint4_linear" x1="176" y1="23.4999" x2="138.597" y2="130.58" gradientUnits="userSpaceOnUse">
<stop stop-color="#77D9CD"/>
<stop offset="1" stop-color="#1A537C"/>
</linearGradient>
</defs>
</svg>
